<svg id="Layer_1" data-name="Layer 1" xmlns="http://www.w3.org/2000/svg" viewBox="0 0 300 300"><defs><style>.cls-1{fill:#0080ff;}.cls-2{fill:#fff;}</style></defs><title>Face book</title><path class="cls-1" d="M299.5,150A149.5,149.5,0,1,0,126.64,297.68V193.21h-38V150h38V117.06c0-37.47,22.32-58.16,56.47-58.16a229.71,229.71,0,0,1,33.46,2.92V98.61H197.72c-18.57,0-24.36,11.52-24.36,23.35v28h41.46l-6.63,43.21H173.36V297.68A149.53,149.53,0,0,0,299.5,150Z"/><path class="cls-2" d="M208.19,193.21,214.82,150H173.36V122c0-11.83,5.79-23.35,24.36-23.35h18.85V61.82a229.71,229.71,0,0,0-33.46-2.92c-34.15,0-56.47,20.69-56.47,58.16V150h-38v43.21h38V297.68a150.82,150.82,0,0,0,46.72,0V193.21Z"/></svg>