<svg xmlns="http://www.w3.org/2000/svg" xmlns:xlink="http://www.w3.org/1999/xlink" viewBox="0 0 900 500"><defs><style>.cls-1{fill:#d53692;}.cls-2{fill:#006ef5;}.cls-3{fill:#fcbb45;}.cls-4{fill:#8f39ce;}.cls-18,.cls-5{fill:#00d95f;}.cls-17,.cls-6{fill:red;}.cls-7{fill:#3cf;}.cls-12,.cls-8{fill:#fff;}.cls-9{fill:url(#linear-gradient);}.cls-10{fill:#337fff;}.cls-11{fill:#ee1d52;}.cls-11,.cls-12,.cls-13,.cls-17,.cls-18,.cls-19{fill-rule:evenodd;}.cls-13{fill:#69c9d0;}.cls-14{fill:url(#linear-gradient-2);}.cls-15{fill:url(#linear-gradient-3);}.cls-16{fill:url(#linear-gradient-4);}.cls-20{fill:none;stroke:#999;stroke-miterlimit:10;stroke-width:0.5px;stroke-dasharray:12;}</style><linearGradient id="linear-gradient" x1="362.44" y1="154.45" x2="397.81" y2="184.33" gradientUnits="userSpaceOnUse"><stop offset="0" stop-color="#fbe18a"/><stop offset="0.21" stop-color="#fcbb45"/><stop offset="0.38" stop-color="#f75274"/><stop offset="0.52" stop-color="#d53692"/><stop offset="0.74" stop-color="#8f39ce"/><stop offset="1" stop-color="#5b4fe9"/></linearGradient><linearGradient id="linear-gradient-2" x1="308.07" y1="143.57" x2="340.15" y2="174.28" xlink:href="#linear-gradient"/><linearGradient id="linear-gradient-3" x1="299.01" y1="153.03" x2="331.1" y2="183.74" xlink:href="#linear-gradient"/><linearGradient id="linear-gradient-4" x1="298.94" y1="153.1" x2="331.03" y2="183.82" xlink:href="#linear-gradient"/></defs><title>18764668</title><g id="ELEMENTS"><path class="cls-1" d="M80,113.56a10.16,10.16,0,1,0-10.94,0,15.35,15.35,0,0,0-9.86,14.32,5,5,0,0,0,5,5H84.83a5,5,0,0,0,5-5A15.36,15.36,0,0,0,80,113.56ZM67,105a7.54,7.54,0,1,1,7.54,7.53A7.55,7.55,0,0,1,67,105Zm17.87,25.22H64.16a2.36,2.36,0,0,1-2.36-2.36,12.7,12.7,0,1,1,25.4,0A2.37,2.37,0,0,1,84.83,130.24Z"/><path class="cls-2" d="M82.25,149.24H66.75a5.69,5.69,0,0,0-5.69,5.69v27a5.69,5.69,0,0,0,5.69,5.69h15.5A5.69,5.69,0,0,0,87.93,182v-27A5.69,5.69,0,0,0,82.25,149.24Zm-15.5,2.63h15.5a3.06,3.06,0,0,1,3.06,3.06v21.66H63.68V154.93A3.07,3.07,0,0,1,66.75,151.87ZM82.25,185H66.75A3.07,3.07,0,0,1,63.68,182v-2.75H85.31V182A3.06,3.06,0,0,1,82.25,185Z"/><path class="cls-2" d="M74.14,155.64a1.05,1.05,0,1,0-1-1A1,1,0,0,0,74.14,155.64Z"/><path class="cls-2" d="M74.14,180.84a1,1,0,1,0,1,1A1,1,0,0,0,74.14,180.84Z"/><path class="cls-3" d="M93.18,222.2,79.13,206.1a6.13,6.13,0,0,0-9.26,0L55.82,222.2a1.3,1.3,0,0,0-.21,1.4,1.32,1.32,0,0,0,1.2.77h2.4v16.38a1.31,1.31,0,0,0,1.31,1.31h28a1.31,1.31,0,0,0,1.31-1.31V224.37h2.4a1.31,1.31,0,0,0,1-2.17ZM71.84,207.82a3.54,3.54,0,0,1,5.31,0L89.3,221.75H59.69Zm15.32,31.62H61.83V224.37H87.16Z"/><path class="cls-4" d="M88,262.68H61a5.49,5.49,0,0,0-5.48,5.49v18.88A5.49,5.49,0,0,0,61,292.54H88a5.49,5.49,0,0,0,5.49-5.49V268.17A5.49,5.49,0,0,0,88,262.68Zm0,2.62a2.69,2.69,0,0,1,.65.08l-11.4,12.94a3.68,3.68,0,0,1-5.53,0l-11.4-12.94a2.82,2.82,0,0,1,.65-.08Zm2.87,21.75A2.87,2.87,0,0,1,88,289.91H61a2.86,2.86,0,0,1-2.86-2.86V268.17a3,3,0,0,1,.21-1.09l11.44,13a6.32,6.32,0,0,0,9.46,0l11.43-13a2.83,2.83,0,0,1,.22,1.09Z"/><path class="cls-5" d="M88.56,332l-25-18.23A2.83,2.83,0,0,0,59,316v31A3.37,3.37,0,0,0,64,350a1.13,1.13,0,0,0,.37-.28l8.5-9.25,5.09,10a1.3,1.3,0,0,0,1.17.72,1.38,1.38,0,0,0,.59-.14,1.32,1.32,0,0,0,.58-1.77l-5.14-10.1,12.51-1.32a1.45,1.45,0,0,0,.46-.14,3.39,3.39,0,0,0,.46-5.77Zm-1.49,3.33-13.95,1.48a1.26,1.26,0,0,0-.82.42l-9.69,10.54a.78.78,0,0,1-.58-.09.77.77,0,0,1-.37-.66V316a.19.19,0,0,1,.12-.19l.09,0a.13.13,0,0,1,.12.05l25,18.23a.78.78,0,0,1,0,1.21Z"/><path class="cls-6" d="M74.5,405.63h0a1.28,1.28,0,0,1-1-.42c-.56-.6-13.7-14.83-13.7-22.63a14.66,14.66,0,1,1,29.32,0c0,7.8-13.14,22-13.7,22.63A1.31,1.31,0,0,1,74.5,405.63Zm0-35.09a12.05,12.05,0,0,0-12,12c0,5.17,7.95,15.19,12,19.79,4.08-4.6,12-14.62,12-19.79A12.05,12.05,0,0,0,74.5,370.54Z"/><path class="cls-6" d="M74.5,388.54a6.61,6.61,0,1,1,6.6-6.6A6.61,6.61,0,0,1,74.5,388.54Zm0-10.58a4,4,0,1,0,4,4A4,4,0,0,0,74.5,378Z"/><path class="cls-7" d="M74.5,422.35a19,19,0,1,0,19,19A19,19,0,0,0,74.5,422.35ZM90.82,440H83.67c-.18-5.92-1.55-11-3.67-14.11A16.41,16.41,0,0,1,90.82,440ZM74.5,457.73c-3,0-6.26-6.12-6.55-15.06h13.1C80.75,451.61,77.46,457.73,74.5,457.73ZM68,440C68.24,431.1,71.53,425,74.5,425s6.25,6.12,6.55,15.06Zm1-14.11c-2.11,3.16-3.49,8.19-3.67,14.11H58.18A16.41,16.41,0,0,1,69,425.93ZM58.18,442.67h7.14c.18,5.92,1.56,10.95,3.67,14.11A16.43,16.43,0,0,1,58.18,442.67ZM80,456.78c2.12-3.16,3.49-8.19,3.67-14.11h7.15A16.42,16.42,0,0,1,80,456.78Z"/><circle class="cls-1" cx="138.6" cy="103.73" r="7.55" transform="translate(5.81 214.79) rotate(-76.72)"/><path class="cls-1" d="M138.6,113.86h0a14,14,0,0,0-14,14h0a3.67,3.67,0,0,0,3.67,3.67h20.68a3.67,3.67,0,0,0,3.67-3.67h0A14,14,0,0,0,138.6,113.86Z"/><path class="cls-2" d="M150.73,176.59V154.93a4.37,4.37,0,0,0-4.38-4.37h-15.5a4.37,4.37,0,0,0-4.38,4.37v21.66ZM138.6,153.28a1.31,1.31,0,1,1-1.31,1.31A1.31,1.31,0,0,1,138.6,153.28Z"/><path class="cls-2" d="M126.47,179.21V182a4.37,4.37,0,0,0,4.38,4.37h15.5a4.37,4.37,0,0,0,4.38-4.37v-2.75Zm12.13,4.69a1.31,1.31,0,1,1,1.31-1.31A1.31,1.31,0,0,1,138.6,183.9Z"/><path class="cls-3" d="M135,207l-12.53,14.36a1,1,0,0,0,.79,1.74H154a1,1,0,0,0,.79-1.74L142.24,207A4.83,4.83,0,0,0,135,207Z"/><path class="cls-3" d="M152.58,225.7v14a1,1,0,0,1-1.05,1.05H125.67a1,1,0,0,1-1-1.05v-14Z"/><path class="cls-4" d="M123.54,264.37l12.3,13.95a3.67,3.67,0,0,0,5.52,0l12.08-13.71a1.31,1.31,0,0,1,.35-.27,4.27,4.27,0,0,0-1.67-.35h-27a4.27,4.27,0,0,0-1.6.32Z"/><path class="cls-4" d="M155.65,266a1.37,1.37,0,0,1-.24.4l-12.08,13.71a6.32,6.32,0,0,1-9.46,0l-12.29-13.95-.07-.09a4.14,4.14,0,0,0-.6,2.15v18.88a4.18,4.18,0,0,0,4.17,4.18h27a4.18,4.18,0,0,0,4.17-4.18V268.17A4.18,4.18,0,0,0,155.65,266Z"/><path class="cls-5" d="M151.89,332.37l-25-18.24a1.52,1.52,0,0,0-2.42,1.23v31a2.09,2.09,0,0,0,3,1.86l8.83-9.61L142,349.83a1.31,1.31,0,0,0,2.34-1.19l-5.77-11.35,13-1.38A2.08,2.08,0,0,0,151.89,332.37Z"/><path class="cls-6" d="M138.6,378.22a4,4,0,1,0,4,4A4,4,0,0,0,138.6,378.22Z"/><path class="cls-6" d="M138.6,369.48a13.35,13.35,0,0,0-13.35,13.35c0,6.29,9.71,17.66,12.57,20.88a1,1,0,0,0,1.56,0c2.86-3.22,12.57-14.59,12.57-20.88A13.35,13.35,0,0,0,138.6,369.48Zm0,19.31a6.6,6.6,0,1,1,6.6-6.6A6.61,6.61,0,0,1,138.6,388.79Z"/><path class="cls-7" d="M132.05,442.67c.3,8.94,3.58,15.06,6.55,15.06s6.25-6.12,6.55-15.06Z"/><path class="cls-7" d="M138.6,425c-3,0-6.25,6.12-6.55,15.06h13.1C144.85,431.1,141.57,425,138.6,425Z"/><path class="cls-7" d="M147.77,440h8.47a17.69,17.69,0,0,0-13.63-15.91C145.56,426.93,147.56,432.82,147.77,440Z"/><path class="cls-7" d="M147.77,442.67c-.21,7.22-2.21,13.11-5.16,15.91a17.69,17.69,0,0,0,13.63-15.91Z"/><path class="cls-7" d="M129.43,442.67H121a17.69,17.69,0,0,0,13.63,15.91C131.64,455.78,129.64,449.89,129.43,442.67Z"/><path class="cls-7" d="M129.43,440c.21-7.22,2.21-13.11,5.16-15.91A17.69,17.69,0,0,0,121,440Z"/><circle class="cls-1" cx="202.7" cy="113.86" r="17.69" transform="translate(-26.65 75.81) rotate(-19.9)"/><path class="cls-8" d="M207.74,105.53a5,5,0,1,1-5-5A5,5,0,0,1,207.74,105.53Z"/><path class="cls-8" d="M202.7,112.29h0a9.35,9.35,0,0,0-9.35,9.35h0a2.46,2.46,0,0,0,2.46,2.45H209.6a2.45,2.45,0,0,0,2.45-2.45h0A9.35,9.35,0,0,0,202.7,112.29Z"/><circle class="cls-2" cx="202.7" cy="168.45" r="17.69"/><path class="cls-8" d="M210.7,173.82V159.53a2.88,2.88,0,0,0-2.88-2.89H197.59a2.89,2.89,0,0,0-2.89,2.89v14.29Zm-8-15.38a.87.87,0,1,1,0,1.73.87.87,0,0,1,0-1.73Z"/><path class="cls-8" d="M194.7,175.55v1.81a2.89,2.89,0,0,0,2.89,2.89h10.23a2.88,2.88,0,0,0,2.88-2.89v-1.81Zm8,3.09a.87.87,0,0,1,0-1.73.87.87,0,1,1,0,1.73Z"/><circle class="cls-3" cx="202.7" cy="223.03" r="17.69"/><path class="cls-8" d="M200.28,210.75l-8.35,9.57a.7.7,0,0,0,.53,1.16H213a.7.7,0,0,0,.52-1.16l-8.34-9.57A3.22,3.22,0,0,0,200.28,210.75Z"/><path class="cls-8" d="M212,223.23v9.33a.7.7,0,0,1-.7.7H194.09a.71.71,0,0,1-.7-.7v-9.33Z"/><circle class="cls-4" cx="202.7" cy="277.61" r="17.69"/><path class="cls-8" d="M192.66,268.78l8.2,9.3a2.45,2.45,0,0,0,3.69,0l8.06-9.14a.76.76,0,0,1,.22-.18,2.72,2.72,0,0,0-1.11-.23h-18a2.69,2.69,0,0,0-1.07.21Z"/><path class="cls-8" d="M214.08,269.83a.92.92,0,0,1-.16.27l-8.06,9.14a4.2,4.2,0,0,1-6.31,0l-8.21-9.3,0-.06a2.8,2.8,0,0,0-.4,1.43v12.6a2.78,2.78,0,0,0,2.79,2.78h18a2.77,2.77,0,0,0,2.78-2.78v-12.6A2.78,2.78,0,0,0,214.08,269.83Z"/><circle class="cls-5" cx="202.7" cy="332.19" r="17.69" transform="translate(-100.98 88.85) rotate(-19.9)"/><path class="cls-8" d="M213.16,332.3l-15.74-11.46a1,1,0,0,0-1.51.77v19.47a1.31,1.31,0,0,0,1.91,1.16l5.55-6,3.6,7.08a.8.8,0,0,0,.73.45.85.85,0,0,0,.38-.09.84.84,0,0,0,.36-1.11l-3.63-7.13,8.18-.87A1.31,1.31,0,0,0,213.16,332.3Z"/><circle class="cls-6" cx="202.7" cy="386.77" r="17.69"/><path class="cls-8" d="M202.7,375a9.11,9.11,0,0,0-9.11,9.11c0,4.3,6.62,12.06,8.58,14.25a.7.7,0,0,0,1.07,0c1.95-2.19,8.58-9.95,8.58-14.25A9.11,9.11,0,0,0,202.7,375Zm0,13.18a4.51,4.51,0,1,1,4.51-4.5A4.51,4.51,0,0,1,202.7,388.15Z"/><circle class="cls-7" cx="202.7" cy="441.35" r="17.69"/><path class="cls-8" d="M198.32,442.23c.2,6,2.4,10.09,4.38,10.09s4.19-4.1,4.38-10.09Z"/><path class="cls-8" d="M202.7,430.39c-2,0-4.18,4.1-4.38,10.09h8.76C206.89,434.49,204.69,430.39,202.7,430.39Z"/><path class="cls-8" d="M208.84,440.48h5.66a11.84,11.84,0,0,0-9.11-10.65C207.36,431.7,208.7,435.64,208.84,440.48Z"/><path class="cls-8" d="M208.84,442.23c-.14,4.84-1.48,8.78-3.45,10.65a11.84,11.84,0,0,0,9.11-10.65Z"/><path class="cls-8" d="M196.56,442.23H190.9A11.83,11.83,0,0,0,200,452.88C198.05,451,196.71,447.07,196.56,442.23Z"/><path class="cls-8" d="M196.56,440.48c.15-4.84,1.49-8.78,3.46-10.65a11.83,11.83,0,0,0-9.12,10.65Z"/><circle class="cls-7" cx="379.01" cy="223.03" r="17.69"/><path class="cls-8" d="M388.78,217a8.2,8.2,0,0,1-1.95.55c.32-.05.78-.62,1-.85a3.59,3.59,0,0,0,.65-1.18s0-.08,0-.1a.11.11,0,0,0-.11,0,10.1,10.1,0,0,1-2.31.88.15.15,0,0,1-.16,0,2,2,0,0,0-.2-.21,4.3,4.3,0,0,0-1.12-.68,3.92,3.92,0,0,0-1.72-.28,4.19,4.19,0,0,0-1.63.46,4.05,4.05,0,0,0-1.32,1.08,4,4,0,0,0-.78,1.57,4.22,4.22,0,0,0,0,1.66c0,.09,0,.11-.08.09a12.39,12.39,0,0,1-7.95-4c-.09-.11-.14-.11-.21,0a4,4,0,0,0,.68,4.77l.49.43a4.07,4.07,0,0,1-1.53-.43c-.1-.06-.14,0-.15.08a2.3,2.3,0,0,0,0,.45,4.08,4.08,0,0,0,2.52,3.25,2.16,2.16,0,0,0,.51.16,4.74,4.74,0,0,1-1.51.05c-.11,0-.15,0-.11.13a4.21,4.21,0,0,0,3.16,2.65c.15,0,.29,0,.43.06l0,0a5.06,5.06,0,0,1-2.16,1.14,7.78,7.78,0,0,1-3.28.42c-.18,0-.21,0-.26,0s0,.07.05.12c.22.14.45.28.68.4a10.9,10.9,0,0,0,2.19.88,11.68,11.68,0,0,0,11.34-2.65,11.9,11.9,0,0,0,3.13-8.68c0-.12.15-.19.24-.26a7.55,7.55,0,0,0,1.54-1.6.5.5,0,0,0,.1-.31h0C388.86,216.91,388.86,216.93,388.78,217Z"/><circle class="cls-9" cx="379.01" cy="168.45" r="17.69"/><path class="cls-8" d="M384.5,161.75a1.22,1.22,0,1,0,1.22,1.22A1.22,1.22,0,0,0,384.5,161.75Z"/><path class="cls-8" d="M379.09,163.31a5.11,5.11,0,1,0,5.11,5.11A5.11,5.11,0,0,0,379.09,163.31Zm0,8.38a3.27,3.27,0,1,1,3.28-3.27A3.28,3.28,0,0,1,379.09,171.69Z"/><path class="cls-8" d="M383.15,178.79h-8.28a6.23,6.23,0,0,1-6.23-6.23v-8.28a6.23,6.23,0,0,1,6.23-6.23h8.28a6.23,6.23,0,0,1,6.23,6.23v8.28A6.23,6.23,0,0,1,383.15,178.79ZM374.87,160a4.28,4.28,0,0,0-4.28,4.28v8.28a4.28,4.28,0,0,0,4.28,4.28h8.28a4.28,4.28,0,0,0,4.28-4.28v-8.28a4.28,4.28,0,0,0-4.28-4.28Z"/><path class="cls-10" d="M396.7,113.86a17.69,17.69,0,1,0-20.46,17.48V119h-4.49v-5.12h4.49V110c0-4.44,2.65-6.89,6.69-6.89a27,27,0,0,1,4,.35v4.35h-2.23a2.57,2.57,0,0,0-2.89,2.77v3.31h4.91L385.9,119h-4.13v12.36A17.7,17.7,0,0,0,396.7,113.86Z"/><path class="cls-8" d="M385.9,119l.78-5.12h-4.91v-3.31a2.57,2.57,0,0,1,2.89-2.77h2.23v-4.35a27,27,0,0,0-4-.35c-4,0-6.69,2.45-6.69,6.89v3.89h-4.49V119h4.49v12.36a18.16,18.16,0,0,0,2.77.21,17.93,17.93,0,0,0,2.76-.21V119Z"/><circle cx="379.01" cy="332.19" r="17.69"/><path class="cls-11" d="M383.66,329.15a8.73,8.73,0,0,0,5.08,1.62v-3.65a4.71,4.71,0,0,1-1.06-.11v2.88a8.75,8.75,0,0,1-5.09-1.63v7.44a6.75,6.75,0,0,1-10.51,5.61,6.75,6.75,0,0,0,11.58-4.72v-7.44Zm1.31-3.68a5.08,5.08,0,0,1-1.31-3V322h-1a5.18,5.18,0,0,0,2.33,3.45Zm-10.53,13a3.08,3.08,0,0,1,2.46-4.95,3.28,3.28,0,0,1,.93.14v-3.73a6.28,6.28,0,0,0-1.06-.06v2.9a3.34,3.34,0,0,0-.94-.14,3.08,3.08,0,0,0-1.39,5.84Z"/><path class="cls-12" d="M382.59,328.26a8.75,8.75,0,0,0,5.09,1.63V327a8,8,0,0,1-5-5H380v14.57a3.65,3.65,0,1,1-4.15-4,3.24,3.24,0,0,1,.94.14v-2.9a6.32,6.32,0,1,0,5.82,5.85Z"/><path class="cls-13" d="M387.68,327v-.77a5.17,5.17,0,0,1-2.71-.77A5.14,5.14,0,0,0,387.68,327Zm-5-5c0-.14,0-.28-.05-.42v-.47h-3.67V335.7a3.09,3.09,0,0,1-4.48,2.75,3.08,3.08,0,0,0,5.54-1.86V322Zm-5.87,7.83V329a7.26,7.26,0,0,0-.93-.06,6.75,6.75,0,0,0-3.76,12.35,6.75,6.75,0,0,1,4.69-11.46Z"/><path class="cls-6" d="M379,259.92a17.68,17.68,0,0,0-7.22,33.83c0-.5,0-1,0-1.49.05-1.72.27-2.32,2.48-11.64a.59.59,0,0,0-.05-.39,6.59,6.59,0,0,1-.17-4.36c1-3.18,4.61-3.42,5.24-.8.39,1.62-.64,3.75-1.43,6.89-.65,2.59,2.4,4.43,5,2.54,2.4-1.74,3.33-5.92,3.16-8.89-.35-5.9-6.83-7.18-10.94-5.28-4.71,2.18-5.78,8-3.66,10.69.27.34.48.55.39.89-.13.53-.26,1.07-.4,1.6a.57.57,0,0,1-.84.38,4.87,4.87,0,0,1-2-1.47c-1.81-2.24-2.32-6.66.06-10.41,2.65-4.15,7.57-5.83,12.07-5.32,5.36.61,8.76,4.28,9.39,8.44a14,14,0,0,1-2.58,9.87c-3.06,3.8-8,4.05-10.31,1.72a7.49,7.49,0,0,1-.49-.6c0,.08-.05.16-.07.23-1.1,4.3-1.22,5.26-2.35,7.26-.17.31-.36.6-.55.9A17.69,17.69,0,1,0,379,259.92Z"/><path class="cls-8" d="M376.66,286.35c0-.07,0-.15.07-.23a7.49,7.49,0,0,0,.49.6c2.29,2.33,7.25,2.08,10.31-1.72a14,14,0,0,0,2.58-9.87c-.63-4.16-4-7.83-9.39-8.44-4.5-.51-9.42,1.17-12.07,5.32-2.38,3.75-1.87,8.17-.06,10.41a4.87,4.87,0,0,0,2,1.47.57.57,0,0,0,.84-.38c.14-.53.27-1.07.4-1.6.09-.34-.12-.55-.39-.89-2.12-2.67-1.05-8.51,3.66-10.69,4.11-1.9,10.59-.62,10.94,5.28.17,3-.76,7.15-3.16,8.89-2.61,1.89-5.66.05-5-2.54.79-3.14,1.82-5.27,1.43-6.89-.63-2.62-4.24-2.38-5.24.8a6.59,6.59,0,0,0,.17,4.36.59.59,0,0,1,.05.39c-2.21,9.32-2.43,9.92-2.48,11.64,0,.5,0,1,0,1.49a16.71,16.71,0,0,0,2,.76c.19-.3.38-.59.55-.9C375.44,291.61,375.56,290.65,376.66,286.35Z"/><circle class="cls-5" cx="379.01" cy="386.77" r="17.69" transform="translate(-62.99 699.63) rotate(-80.87)"/><path class="cls-8" d="M369.45,396.78l1.48-5.5a10.16,10.16,0,1,1,4.05,4Zm5.81-3.54.35.21a8.31,8.31,0,1,0-2.83-2.81l.21.36-.82,3.07Z"/><path class="cls-12" d="M383.59,387.78a1.7,1.7,0,0,0-1.45-.32c-.38.15-.62.74-.87,1.05a.37.37,0,0,1-.47.1,6.65,6.65,0,0,1-3.28-2.82.4.4,0,0,1,.05-.55,2.27,2.27,0,0,0,.59-1,2.1,2.1,0,0,0-.26-1.15,2.71,2.71,0,0,0-.85-1.28,1.16,1.16,0,0,0-1.26.19,2.53,2.53,0,0,0-.89,2,2.74,2.74,0,0,0,.08.64,5.34,5.34,0,0,0,.62,1.43c.2.33.41.66.64,1a10,10,0,0,0,2.8,2.59,8.17,8.17,0,0,0,1.74.83,3.84,3.84,0,0,0,2,.32,2.41,2.41,0,0,0,1.84-1.37,1.18,1.18,0,0,0,.09-.69C384.63,388.3,384,388,383.59,387.78Z"/><circle class="cls-6" cx="379.01" cy="441.35" r="17.69"/><path class="cls-8" d="M388.48,438.83a4.25,4.25,0,0,0-4.25-4.25H373.37a4.25,4.25,0,0,0-4.25,4.25v5.05a4.25,4.25,0,0,0,4.25,4.25h10.86a4.25,4.25,0,0,0,4.25-4.25Zm-6.39,2.9-4.87,2.41c-.19.11-.84,0-.84-.25v-4.95c0-.22.66-.35.85-.24l4.66,2.53C382.08,441.34,382.29,441.63,382.09,441.73Z"/><path class="cls-14" d="M324.27,157a2.08,2.08,0,1,0,2.08,2.08A2.08,2.08,0,0,0,324.27,157Z"/><path class="cls-15" d="M315.05,159.67a8.72,8.72,0,1,0,8.72,8.71A8.72,8.72,0,0,0,315.05,159.67Zm0,14.3a5.59,5.59,0,1,1,5.58-5.59A5.59,5.59,0,0,1,315.05,174Z"/><path class="cls-16" d="M322,186.08H307.84a10.64,10.64,0,0,1-10.62-10.63V161.32a10.64,10.64,0,0,1,10.62-10.63H322a10.64,10.64,0,0,1,10.63,10.63v14.13A10.64,10.64,0,0,1,322,186.08ZM307.84,154a7.32,7.32,0,0,0-7.3,7.3v14.13a7.32,7.32,0,0,0,7.3,7.3H322a7.32,7.32,0,0,0,7.3-7.3V161.32A7.32,7.32,0,0,0,322,154Z"/><path class="cls-10" d="M323.14,116l1-6.4H318v-4.16c0-1.75.86-3.46,3.61-3.46h2.79V96.53a34.18,34.18,0,0,0-5-.43c-5.06,0-8.36,3.07-8.36,8.62v4.88h-5.63V116h5.63v15.48H318V116Z"/><path class="cls-7" d="M336.22,209.53a17.67,17.67,0,0,1-4.34,1.24c.7-.12,1.72-1.39,2.13-1.9a8.07,8.07,0,0,0,1.45-2.63c0-.07.06-.17,0-.22a.26.26,0,0,0-.23,0,22.28,22.28,0,0,1-5.16,2,.34.34,0,0,1-.35-.1,3.93,3.93,0,0,0-.45-.46,9.44,9.44,0,0,0-2.5-1.53,8.65,8.65,0,0,0-3.83-.61,9,9,0,0,0-3.63,1,9.32,9.32,0,0,0-2.93,2.4,8.89,8.89,0,0,0-1.75,3.5,9.41,9.41,0,0,0-.1,3.7c0,.21,0,.24-.17.21-7.08-1-13-3.59-17.72-9-.2-.23-.31-.23-.48,0-2.09,3.13-1.08,8.15,1.53,10.61a12.67,12.67,0,0,0,1.09,1,9,9,0,0,1-3.42-1c-.21-.13-.31-.05-.33.18a5.12,5.12,0,0,0,.06,1,9.08,9.08,0,0,0,5.59,7.24,5,5,0,0,0,1.14.34,10.17,10.17,0,0,1-3.35.11c-.25,0-.34.07-.25.31,1.48,4,4.66,5.21,7,5.9.32.05.64.05,1,.13,0,0,0,0,0,.05-.79,1.21-3.54,2.11-4.81,2.55a17.31,17.31,0,0,1-7.31.94c-.39-.06-.47-.06-.58,0s0,.16.11.26c.5.33,1,.62,1.52.9a23.43,23.43,0,0,0,4.89,1.95c8.77,2.43,18.66.65,25.25-5.9,5.17-5.14,7-12.23,7-19.33,0-.28.33-.43.53-.58a17.08,17.08,0,0,0,3.43-3.57,1.05,1.05,0,0,0,.23-.68v0C336.4,209.42,336.4,209.45,336.22,209.53Z"/><path class="cls-17" d="M312.66,283c0,.1-.05.19-.08.27-1.3,5.1-1.44,6.23-2.77,8.59a26.81,26.81,0,0,1-2.15,3.21c-.09.12-.18.26-.36.23s-.21-.22-.23-.38a27.91,27.91,0,0,1-.28-4.66c.07-2,.32-2.73,2.94-13.76a.72.72,0,0,0-.06-.46,7.81,7.81,0,0,1-.2-5.16c1.19-3.76,5.45-4,6.2-.94.46,1.92-.76,4.43-1.69,8.14-.77,3.07,2.83,5.25,5.92,3,2.84-2.06,3.94-7,3.73-10.51-.41-7-8.07-8.5-12.93-6.25-5.57,2.58-6.84,9.49-4.32,12.64.32.4.56.65.46,1.06-.17.63-.31,1.26-.48,1.89a.68.68,0,0,1-1,.45,5.72,5.72,0,0,1-2.32-1.74c-2.14-2.65-2.75-7.88.07-12.31,3.13-4.91,8.95-6.9,14.27-6.29,6.35.72,10.36,5.06,11.11,10,.34,2.24.1,7.76-3.05,11.67-3.62,4.49-9.49,4.79-12.2,2C313,283.46,312.87,283.21,312.66,283Z"/><path class="cls-5" d="M297.26,404.45,299.8,395a17.52,17.52,0,1,1,7,6.91Zm10-6.09.59.35a14.22,14.22,0,1,0-4.86-4.82l.37.61-1.42,5.28Z"/><path class="cls-18" d="M321.58,389a2.93,2.93,0,0,0-2.5-.57c-.65.27-1.07,1.28-1.49,1.8a.63.63,0,0,1-.81.18,11.27,11.27,0,0,1-5.65-4.85.68.68,0,0,1,.09-.94,3.92,3.92,0,0,0,1-1.67,3.64,3.64,0,0,0-.46-2,4.68,4.68,0,0,0-1.45-2.19,2,2,0,0,0-2.17.32,4.39,4.39,0,0,0-1.53,3.49,4.54,4.54,0,0,0,.14,1.1,9.19,9.19,0,0,0,1.06,2.45,18.91,18.91,0,0,0,1.11,1.69,17.05,17.05,0,0,0,4.81,4.46,14.49,14.49,0,0,0,3,1.43,6.64,6.64,0,0,0,3.49.55,4.19,4.19,0,0,0,3.16-2.35,2,2,0,0,0,.15-1.2C323.37,389.87,322.25,389.38,321.58,389Z"/><path class="cls-6" d="M332.88,436.66a7.89,7.89,0,0,0-7.89-7.89H304.82a7.89,7.89,0,0,0-7.89,7.89v9.39a7.89,7.89,0,0,0,7.89,7.89H325a7.89,7.89,0,0,0,7.89-7.89ZM321,442.06l-9,4.47c-.35.2-1.56-.06-1.56-.46v-9.19c0-.41,1.22-.67,1.57-.46l8.66,4.71C321,441.33,321.39,441.86,321,442.06Z"/><path class="cls-11" d="M322.78,327a14.49,14.49,0,0,0,8.45,2.7v-6.06a8.13,8.13,0,0,1-1.77-.19v4.77a14.55,14.55,0,0,1-8.46-2.7v12.37a11.21,11.21,0,0,1-17.45,9.31,11.21,11.21,0,0,0,19.23-7.83V327Zm2.19-6.12a8.42,8.42,0,0,1-2.19-4.95v-.78H321.1a8.48,8.48,0,0,0,3.87,5.73Zm-17.5,21.57a5.12,5.12,0,0,1,4.08-8.22,5.18,5.18,0,0,1,1.56.24v-6.2a10.63,10.63,0,0,0-1.78-.1V333a5.12,5.12,0,0,0-3.86,9.46Z"/><path class="cls-19" d="M321,325.56a14.55,14.55,0,0,0,8.46,2.7v-4.77a13.35,13.35,0,0,1-8.36-8.3h-4.42v24.22a6.06,6.06,0,1,1-6.91-6.62,5,5,0,0,1,1.56.24v-4.82a10.49,10.49,0,1,0,9.67,9.72Z"/><path class="cls-13" d="M329.46,323.49V322.2a8.48,8.48,0,0,1-4.49-1.28A8.5,8.5,0,0,0,329.46,323.49Zm-8.36-8.3c0-.23-.07-.46-.1-.69v-.78h-6.1v24.21a5.12,5.12,0,0,1-5.13,5.11,5.07,5.07,0,0,1-2.3-.55,5.13,5.13,0,0,0,9.21-3.08V315.19Zm-9.77,13v-1.38a11.21,11.21,0,0,0-7.78,20.41,11.2,11.2,0,0,1,7.78-19Z"/><line class="cls-20" x1="258.54" y1="94.86" x2="258.54" y2="460.36"/><image width="300" height="300" transform="translate(361.32 39.3) scale(0.12)" xlink:href="../Downloads/twitter-x-logo-0339F999CF-seeklogo.com.png"/></g></svg>