<svg id="Layer_1" data-name="Layer 1" xmlns="http://www.w3.org/2000/svg" viewBox="0 0 300 300"><defs><style>.cls-1{fill:#fff;}</style></defs><title>X</title><path d="M0,158V142c.3-1.6.74-3.19.89-4.8C6.69,72.86,51.84,20,114.49,4.69c9-2.2,18.33-3.16,27.51-4.69h16c1.63.3,3.24.73,4.88.87C228,6.38,282.44,54.15,296.12,117.94c1.7,7.93,2.61,16,3.88,24.06v16c-.31,1.77-.75,3.54-.91,5.32C293.68,226.19,248.16,279.8,187,294.93c-9.49,2.35-19.3,3.41-29,5.07H142a47.86,47.86,0,0,0-4.87-.89C74.33,294,20.45,248.5,5.17,187.38,2.76,177.76,1.69,167.8,0,158Zm136.49,10.75c1.39,1.76,2.44,3,3.43,4.36,15,20,30,40,44.85,60.08a8.12,8.12,0,0,0,7.43,3.74c15-.18,30-.08,45-.08h5.61l-75.67-101.2,67.11-72.51c-4,0-6.5.29-8.92-.06-5.35-.78-8.87,1.48-12.41,5.38C196.7,86.37,180.15,104,163.8,121.77c-1.21,1.32-1.86,3.14-3.06,5.22-2.42-3.17-3.54-4.6-4.62-6C142.54,102.79,129,84.59,115.29,66.58a9.44,9.44,0,0,0-6.43-3.29c-15.49-.29-31-.16-46.49-.14-1.21,0-2.42.26-4.32.48l71.26,95.31L57.63,236.41c9.39,1,17.1,1.52,22.93-6.93C85,223.1,91,217.87,96.34,212.12Z"/><path class="cls-1" d="M136.49,168.75,96.34,212.12C91,217.87,85,223.1,80.56,229.48c-5.83,8.45-13.54,7.92-22.93,6.93l71.68-77.47L58.05,63.63c1.9-.22,3.11-.48,4.32-.48,15.5,0,31-.15,46.49.14a9.44,9.44,0,0,1,6.43,3.29c13.75,18,27.25,36.21,40.83,54.36,1.08,1.45,2.2,2.88,4.62,6,1.2-2.08,1.85-3.9,3.06-5.22,16.35-17.78,32.9-35.4,49.11-53.31,3.54-3.9,7.06-6.16,12.41-5.38,2.42.35,4.94.06,8.92.06l-67.11,72.51,75.67,101.2h-5.61c-15,0-30-.1-45,.08a8.12,8.12,0,0,1-7.43-3.74c-14.87-20.09-29.88-40.07-44.85-60.08C138.93,171.79,137.88,170.51,136.49,168.75Zm81.65,56.12a13.83,13.83,0,0,0-.9-2.14Q163,150.07,108.61,77.47a5.53,5.53,0,0,0-3.52-2.24c-7.41-.21-14.84-.11-22.93-.11a27.14,27.14,0,0,0,1.49,2.73q54,72.24,108.08,144.42a6.12,6.12,0,0,0,3.88,2.49C202.89,225,210.19,224.87,218.14,224.87Z"/><path d="M218.14,224.87c-7.95,0-15.25.13-22.53-.11a6.12,6.12,0,0,1-3.88-2.49Q137.61,150.12,83.65,77.85a27.14,27.14,0,0,1-1.49-2.73c8.09,0,15.52-.1,22.93.11a5.53,5.53,0,0,1,3.52,2.24Q163,150.06,217.24,222.73A13.83,13.83,0,0,1,218.14,224.87Z"/></svg>